<svg xmlns="http://www.w3.org/2000/svg" viewBox="0 0 297.78309 27.26978"><defs><style>.cls-1{fill:none;stroke:#60605e;stroke-width:0.333px;}.cls-2{fill:#626665;}.cls-3{fill:#17a8e1;}.cls-4{fill:#ed3028;}.cls-5{fill:#575b5e;}.cls-6{fill:#00aae5;}.cls-7{fill:#ee2e27;}</style></defs><title>ul-header-with-lcsb</title><g id="Layer_1" data-name="Layer 1"><path class="cls-1" d="M297.66708,24.68956H59.10107V6.50856a3.82583,3.82583,0,0,0-3.826-3.825h-25.82a3.82581,3.82581,0,0,0-3.826,3.825v18.181H-.15992"/><path class="cls-2" d="M33.53115,21.14138a.6819.6819,0,0,1-.723-.731v-1.152h.256v1.152a.43975.43975,0,0,0,.467.492.447.447,0,0,0,.474-.492v-1.152h.251v1.152a.69771.69771,0,0,1-.725.731"/><polygon class="cls-2" points="36.009 21.11 35.037 19.768 35.005 19.718 35.009 19.778 35.009 21.11 34.757 21.11 34.757 19.258 34.972 19.258 35.931 20.575 35.963 20.628 35.958 20.567 35.958 19.258 36.211 19.258 36.211 21.11 36.009 21.11"/><rect class="cls-2" x="36.72515" y="19.25768" width="0.254" height="1.85101"/><polygon class="cls-2" points="38.174 21.11 38.016 21.11 37.364 19.258 37.61 19.258 38.079 20.595 38.095 20.659 38.109 20.595 38.581 19.258 38.823 19.258 38.174 21.11"/><polygon class="cls-2" points="39.209 21.11 39.209 19.258 40.244 19.258 40.244 19.498 39.463 19.498 39.463 20.088 40.226 20.088 40.226 20.326 39.463 20.326 39.463 20.871 40.292 20.871 40.292 21.11 39.209 21.11"/><path class="cls-2" d="M41.29693,19.49807h-.3v.636h.294a.32933.32933,0,0,0,.362-.341.32591.32591,0,0,0-.356-.295m.448,1.612-.748-.864v.864h-.253v-1.852h.599a.54416.54416,0,0,1,.573.546.53706.53706,0,0,1-.528.53l.682.776Z"/><path class="cls-2" d="M42.89025,21.14138a.83092.83092,0,0,1-.544-.188l.146-.197a.60977.60977,0,0,0,.385.138c.188,0,.317-.084.317-.257,0-.158-.145-.245-.309-.329-.265-.135-.533-.25-.533-.603a.48.48,0,0,1,.535-.477.86511.86511,0,0,1,.5.157l-.137.209a.54988.54988,0,0,0-.365-.117c-.145,0-.267.072-.267.213,0,.2.178.268.406.382.211.104.434.238.434.549a.52089.52089,0,0,1-.568.52"/><rect class="cls-2" x="43.87414" y="19.25768" width="0.254" height="1.85101"/><polygon class="cls-2" points="45.179 19.498 45.179 21.11 44.925 21.11 44.925 19.498 44.547 19.498 44.547 19.258 45.572 19.258 45.572 19.498 45.179 19.498"/><path class="cls-2" d="M46.58865,19.11208h-.243l.236-.374h.243Zm-.598,1.998v-1.852h1.034v.24h-.781v.59h.764v.238h-.764v.545h.83v.239Z"/><path class="cls-2" d="M49.01684,19.48708h-.213v1.395h.165a.70007.70007,0,1,0,.048-1.395m-.017,1.623h-.45v-1.852h.471a.90941.90941,0,0,1,.99.921.92834.92834,0,0,1-1.011.931"/><path class="cls-2" d="M51.158,21.14138a.6819.6819,0,0,1-.723-.731v-1.152h.256v1.152a.4402.4402,0,0,0,.467.492.44656.44656,0,0,0,.474-.492v-1.152h.251v1.152a.69717.69717,0,0,1-.725.731"/><rect class="cls-2" x="32.61917" y="17.75566" width="19.45599" height="0.267"/><polygon class="cls-2" points="32.816 24.329 32.816 22.476 33.07 22.476 33.07 24.09 33.772 24.09 33.772 24.329 32.816 24.329"/><path class="cls-2" d="M34.97586,24.35958a.68061.68061,0,0,1-.723-.73v-1.153h.256v1.153a.43975.43975,0,0,0,.467.492.447.447,0,0,0,.474-.492v-1.153h.251v1.153a.69691.69691,0,0,1-.725.73"/><polygon class="cls-2" points="37.475 24.329 37.062 23.697 36.983 23.568 36.899 23.703 36.488 24.329 36.195 24.329 36.836 23.351 36.268 22.476 36.579 22.476 36.935 23.026 36.993 23.121 37.054 23.021 37.412 22.476 37.703 22.476 37.138 23.339 37.782 24.329 37.475 24.329"/><polygon class="cls-2" points="38.281 24.329 38.281 22.476 39.316 22.476 39.316 22.717 38.535 22.717 38.535 23.307 39.299 23.307 39.299 23.546 38.535 23.546 38.535 24.09 39.364 24.09 39.364 24.329 38.281 24.329"/><polygon class="cls-2" points="41.569 24.329 41.569 22.967 41.575 22.895 41.549 22.94 40.967 23.723 40.866 23.723 40.281 22.959 40.256 22.92 40.261 22.987 40.261 24.329 40.007 24.329 40.007 22.476 40.222 22.476 40.92 23.383 41.598 22.476 41.823 22.476 41.823 24.329 41.569 24.329"/><path class="cls-2" d="M43.07894,23.53991H42.78v.55h.273c.229,0,.335-.111.335-.283a.27339.27339,0,0,0-.309-.267m-.106-.823H42.78v.585h.17c.276,0,.339-.167.339-.323,0-.165-.109-.262-.316-.262m.109,1.612h-.556v-1.853h.489a.49022.49022,0,0,1,.539.483.47987.47987,0,0,1-.213.426.474.474,0,0,1,.311.442.51091.51091,0,0,1-.57.502"/><path class="cls-2" d="M45.02005,22.69658a.66213.66213,0,0,0-.677.702.69842.69842,0,0,0,.686.713.68138.68138,0,0,0,.683-.718.66937.66937,0,0,0-.692-.697m.009,1.663a.93744.93744,0,0,1-.951-.961.949.949,0,1,1,1.898.004.94481.94481,0,0,1-.947.957"/><path class="cls-2" d="M47.19845,24.35958a.68033.68033,0,0,1-.722-.73v-1.153h.256v1.153a.43905.43905,0,0,0,.466.492.44728.44728,0,0,0,.475-.492v-1.153h.252v1.153a.69851.69851,0,0,1-.727.73"/><path class="cls-2" d="M49.05334,22.71688h-.298v.634h.293a.31949.31949,0,1,0,.005-.634m.449,1.612-.747-.864v.864h-.255v-1.853h.599a.545.545,0,0,1,.573.547.53639.53639,0,0,1-.527.531l.682.775Z"/><path class="cls-2" d="M51.06744,24.35958a.95.95,0,0,1-.938-.957.92792.92792,0,0,1,.941-.956.97745.97745,0,0,1,.682.251l-.154.189a.76689.76689,0,0,0-.532-.19.66723.66723,0,0,0-.673.709.70462.70462,0,0,0,.683.706.54523.54523,0,0,0,.545-.374h-.559v-.237h.853a.84942.84942,0,0,1-.848.859"/><path class="cls-3" d="M46.99285,8.28188a.70479.70479,0,0,1-.631-.393h-.08v7.926a.709.709,0,0,0,1.418,0V7.8889h-.08a.69883.69883,0,0,1-.627.393"/><path class="cls-4" d="M41.89666,10.03276a.69438.69438,0,0,1-.627-.392h-.08v6.174a.707.707,0,1,0,1.414,0v-6.174h-.079a.69589.69589,0,0,1-.628.392"/><path class="cls-4" d="M41.188,8.61a.70949.70949,0,1,1,.71.709.70866.70866,0,0,1-.71-.709"/><path class="cls-4" d="M33.51715,16.52239h0a.70692.70692,0,0,1-.707-.707v-5.467a.708.708,0,1,1,1.416,0v6.174h-.709"/><path class="cls-4" d="M34.60714,16.52239h0v-6.174a.70749.70749,0,1,1,1.415,0v6.174h.002c-.336,0-.412-.387-.412-.767a.76074.76074,0,0,1-.708.767h-.295"/><path class="cls-4" d="M39.50967,9.64077h0a.70845.70845,0,0,1,.707.708v5.467a.708.708,0,0,1-1.416,0v-6.175h.709"/><path class="cls-4" d="M38.41766,9.64077h.001v6.175a.708.708,0,0,1-1.416,0v-6.175c.334,0,.412.389.412.769h-.001a.76282.76282,0,0,1,.709-.769h.295"/><path class="cls-3" d="M49.38455,16.52239h0a.70628.70628,0,0,1-.707-.707v-5.467a.708.708,0,1,1,1.416,0v6.174h-.709"/><path class="cls-3" d="M50.47656,16.52239h-.001v-6.174a.707.707,0,1,1,1.414,0v6.174h.002c-.334,0-.412-.389-.412-.767h.001a.76162.76162,0,0,1-.709.767h-.295"/><path class="cls-3" d="M43.73864,15.81429a.70949.70949,0,1,1,.71.708.70887.70887,0,0,1-.71-.708"/></g><g id="Layer_3" data-name="Layer 3"><polygon class="cls-5" points="253.181 14.419 254.195 14.419 254.195 14.191 253.44 14.191 253.44 12.613 253.181 12.613 253.181 14.419"/><polygon class="cls-5" points="253.181 14.419 254.195 14.419 254.195 14.191 253.44 14.191 253.44 12.613 253.181 12.613 253.181 14.419"/><path class="cls-5" d="M255.84062,13.09971h-.24328v.61044c0,.32095-.12408.54345-.40085.54345-.21222-.01291-.2794-.163-.2794-.47084v-.683H254.674v.78392c0,.35425.1527.56647.494.56647a.47408.47408,0,0,0,.43192-.24047h.00524v.2094h.23542Z"/><path class="cls-5" d="M255.84062,13.09971h-.24328v.61044c0,.32095-.12408.54345-.40085.54345-.21222-.01291-.2794-.163-.2794-.47084v-.683H254.674v.78392c0,.35425.1527.56647.494.56647a.47408.47408,0,0,0,.43192-.24047h.00524v.2094h.23542Z"/><polygon class="cls-5" points="256.318 14.419 256.608 14.419 256.934 13.902 257.26 14.419 257.56 14.419 257.094 13.728 257.519 13.1 257.247 13.1 256.955 13.571 256.667 13.1 256.365 13.1 256.794 13.728 256.318 14.419"/><polygon class="cls-5" points="256.318 14.419 256.608 14.419 256.934 13.902 257.26 14.419 257.56 14.419 257.094 13.728 257.519 13.1 257.247 13.1 256.955 13.571 256.667 13.1 256.365 13.1 256.794 13.728 256.318 14.419"/><path class="cls-5" d="M259.02423,14.12159a.782.782,0,0,1-.40628.13194.43164.43164,0,0,1-.43453-.44h.94168c0-.42405-.14241-.745-.582-.745a.613.613,0,0,0-.6183.66752.63117.63117,0,0,0,.68267.71393,1.01043,1.01043,0,0,0,.41676-.08533Zm-.84081-.489a.36531.36531,0,0,1,.35444-.36735.333.333,0,0,1,.32861.36735Z"/><path class="cls-5" d="M259.02423,14.12159a.782.782,0,0,1-.40628.13194.43164.43164,0,0,1-.43453-.44h.94168c0-.42405-.14241-.745-.582-.745a.613.613,0,0,0-.6183.66752.63117.63117,0,0,0,.68267.71393,1.01043,1.01043,0,0,0,.41676-.08533Zm-.84081-.489a.36531.36531,0,0,1,.35444-.36735.333.333,0,0,1,.32861.36735Z"/><path class="cls-5" d="M259.66737,14.4191h.24328v-.6649c0-.24571.09825-.489.34658-.489.1965,0,.23542.20436.23542.36754v.78635h.24328v-.6649c0-.24571.09806-.489.34658-.489.1965,0,.23523.20436.23523.36754v.78635h.24328v-.84586c0-.28726-.12145-.50471-.45792-.50471a.47043.47043,0,0,0-.40871.25619.38994.38994,0,0,0-.37522-.25619.446.446,0,0,0-.419.22269h-.005v-.19144h-.22775Z"/><path class="cls-5" d="M259.66737,14.4191h.24328v-.6649c0-.24571.09825-.489.34658-.489.1965,0,.23542.20436.23542.36754v.78635h.24328v-.6649c0-.24571.09806-.489.34658-.489.1965,0,.23523.20436.23523.36754v.78635h.24328v-.84586c0-.28726-.12145-.50471-.45792-.50471a.47043.47043,0,0,0-.40871.25619.38994.38994,0,0,0-.37522-.25619.446.446,0,0,0-.419.22269h-.005v-.19144h-.22775Z"/><path class="cls-5" d="M262.137,14.41916h.2328V14.233h.00524a.53012.53012,0,0,0,.45007.21708c.39841,0,.56646-.35182.56646-.71393,0-.35425-.1862-.66752-.5689-.66752a.47082.47082,0,0,0-.43734.21221h-.005v-.80188H262.137Zm.99595-.6649c.00524.207-.10349.4991-.36473.4991-.27416,0-.38794-.27154-.38794-.49142,0-.24571.1265-.49667.39056-.49667.26368,0,.36735.251.36211.489"/><path class="cls-5" d="M262.137,14.41916h.2328V14.233h.00524a.53012.53012,0,0,0,.45007.21708c.39841,0,.56646-.35182.56646-.71393,0-.35425-.1862-.66752-.5689-.66752a.47082.47082,0,0,0-.43734.21221h-.005v-.80188H262.137Zm.99595-.6649c.00524.207-.10349.4991-.36473.4991-.27416,0-.38794-.27154-.38794-.49142,0-.24571.1265-.49667.39056-.49667C263.0345,13.26527,263.13817,13.51623,263.13293,13.75426Z"/><path class="cls-5" d="M263.797,13.75935a.67154.67154,0,1,0,1.34253,0,.67154.67154,0,1,0-1.34253,0m.25863,0a.41934.41934,0,1,1,.82527,0,.41934.41934,0,1,1-.82527,0"/><path class="cls-5" d="M263.797,13.75935a.67154.67154,0,1,0,1.34253,0,.67154.67154,0,1,0-1.34253,0Zm.25863,0a.41934.41934,0,1,1,.82527,0,.41934.41934,0,1,1-.82527,0Z"/><path class="cls-5" d="M266.77365,13.09971h-.24328v.61044c0,.32095-.12408.54345-.40085.54345-.21222-.01291-.2794-.163-.2794-.47084v-.683h-.24328v.78392c0,.35425.15271.56647.49423.56647a.47406.47406,0,0,0,.43192-.24047h.00524v.2094h.23542Z"/><path class="cls-5" d="M266.77365,13.09971h-.24328v.61044c0,.32095-.12408.54345-.40085.54345-.21222-.01291-.2794-.163-.2794-.47084v-.683h-.24328v.78392c0,.35425.15271.56647.49423.56647a.47406.47406,0,0,0,.43192-.24047h.00524v.2094h.23542Z"/><path class="cls-5" d="M267.40642,14.4191h.24309V13.819c0-.33124.14241-.53822.35968-.53822a.35936.35936,0,0,1,.13455.0234v-.21727a.68864.68864,0,0,0-.16056-.01834.4019.4019,0,0,0-.344.23561H267.634v-.20436h-.22756Z"/><path class="cls-5" d="M267.40642,14.4191h.24309V13.819c0-.33124.14241-.53822.35968-.53822a.35936.35936,0,0,1,.13455.0234v-.21727a.68864.68864,0,0,0-.16056-.01834.4019.4019,0,0,0-.344.23561H267.634v-.20436h-.22756Z"/><path class="cls-5" d="M269.79855,13.09963h-.22513v.19669h-.00506a.43357.43357,0,0,0-.43472-.22775.63315.63315,0,0,0-.58985.70121.57958.57958,0,0,0,.564.64918.55056.55056,0,0,0,.4424-.20436h.005v.12951a.3989.3989,0,0,1-.40871.45268,1.00469,1.00469,0,0,1-.4759-.119l-.026.22513a1.33838,1.33838,0,0,0,.47346.09039c.47346,0,.68044-.23019.68044-.631Zm-.62879,1.12283c-.22756,0-.36716-.21726-.36716-.46559,0-.22513.12145-.49162.36716-.49162.25882,0,.38551.23542.38551.50976a.41113.41113,0,0,1-.38551.44745"/><path class="cls-5" d="M269.79855,13.09963h-.22513v.19669h-.00506a.43357.43357,0,0,0-.43472-.22775.63315.63315,0,0,0-.58985.70121.57958.57958,0,0,0,.564.64918.55056.55056,0,0,0,.4424-.20436h.005v.12951a.3989.3989,0,0,1-.40871.45268,1.00469,1.00469,0,0,1-.4759-.119l-.026.22513a1.33838,1.33838,0,0,0,.47346.09039c.47346,0,.68044-.23019.68044-.631Zm-.62879,1.12283c-.22756,0-.36716-.21726-.36716-.46559,0-.22513.12145-.49162.36716-.49162.25882,0,.38551.23542.38551.50976A.41113.41113,0,0,1,269.16976,14.22246Z"/><path class="cls-5" d="M272.738,12.65993a.99531.99531,0,0,0-.40609-.07766.9.9,0,0,0-.9546.92615.88957.88957,0,0,0,.952.94168,1.12783,1.12783,0,0,0,.41133-.06457l-.01552-.25113a.8875.8875,0,0,1-.39318.08813.70656.70656,0,0,1,.01291-1.41252.72676.72676,0,0,1,.37259.10087Z"/><path class="cls-5" d="M272.738,12.65993a.99531.99531,0,0,0-.40609-.07766.9.9,0,0,0-.9546.92615.88957.88957,0,0,0,.952.94168,1.12783,1.12783,0,0,0,.41133-.06457l-.01552-.25113a.8875.8875,0,0,1-.39318.08813.70656.70656,0,0,1,.01291-1.41252.72676.72676,0,0,1,.37259.10087Z"/><path class="cls-5" d="M274.2582,14.12159a.78122.78122,0,0,1-.40608.13194.43163.43163,0,0,1-.43454-.44h.94149c0-.42405-.14241-.745-.58181-.745a.61312.61312,0,0,0-.61849.66752.63128.63128,0,0,0,.68306.71393,1.00826,1.00826,0,0,0,.41637-.08533Zm-.84062-.489a.36531.36531,0,0,1,.35444-.36735.333.333,0,0,1,.32843.36735Z"/><path class="cls-5" d="M274.2582,14.12159a.78122.78122,0,0,1-.40608.13194.43163.43163,0,0,1-.43454-.44h.94149c0-.42405-.14241-.745-.58181-.745a.61312.61312,0,0,0-.61849.66752.63128.63128,0,0,0,.68306.71393,1.00826,1.00826,0,0,0,.41637-.08533Zm-.84062-.489a.36531.36531,0,0,1,.35444-.36735.333.333,0,0,1,.32843.36735Z"/><path class="cls-5" d="M274.90387,14.4191h.24328v-.61044c0-.32094.12426-.54345.40085-.54345.2124.01291.27958.16319.27958.47084v.683h.24329v-.78392c0-.35444-.15271-.56665-.49424-.56665a.47452.47452,0,0,0-.4321.24084h-.00506v-.20959h-.2356Z"/><path class="cls-5" d="M274.90387,14.4191h.24328v-.61044c0-.32094.12426-.54345.40085-.54345.2124.01291.27958.16319.27958.47084v.683h.24329v-.78392c0-.35444-.15271-.56665-.49424-.56665a.47452.47452,0,0,0-.4321.24084h-.00506v-.20959h-.2356Z"/><path class="cls-5" d="M277.40451,13.09971h-.34921v-.38289l-.24328.07767v.30522h-.29717v.19649h.29717v.771c0,.26387.15533.38289.40628.38289a.75237.75237,0,0,0,.207-.03631V14.207a.30049.30049,0,0,1-.16562.04659.20956.20956,0,0,1-.20436-.2356v-.7218h.34921Z"/><path class="cls-5" d="M277.40451,13.09971h-.34921v-.38289l-.24328.07767v.30522h-.29717v.19649h.29717v.771c0,.26387.15533.38289.40628.38289a.75237.75237,0,0,0,.207-.03631V14.207a.30049.30049,0,0,1-.16562.04659.20956.20956,0,0,1-.20436-.2356v-.7218h.34921Z"/><path class="cls-5" d="M277.98054,14.4191h.24327V13.819c0-.33124.142-.53822.35968-.53822a.36.36,0,0,1,.13455.0234v-.21727a.69.69,0,0,0-.16056-.01834.401.401,0,0,0-.34378.23561h-.00542v-.20436h-.22774Z"/><path class="cls-5" d="M277.98054,14.4191h.24327V13.819c0-.33124.142-.53822.35968-.53822a.36.36,0,0,1,.13455.0234v-.21727a.69.69,0,0,0-.16056-.01834.401.401,0,0,0-.34378.23561h-.00542v-.20436h-.22774Z"/><path class="cls-5" d="M280.19174,14.12159a.782.782,0,0,1-.40628.13194.43167.43167,0,0,1-.43472-.44h.94187c0-.42405-.14242-.745-.58219-.745a.613.613,0,0,0-.61831.66752.63132.63132,0,0,0,.68287.71393,1.012,1.012,0,0,0,.41676-.08533Zm-.841-.489a.36531.36531,0,0,1,.35444-.36735.333.333,0,0,1,.32862.36735Z"/><path class="cls-5" d="M280.19174,14.12159a.782.782,0,0,1-.40628.13194.43167.43167,0,0,1-.43472-.44h.94187c0-.42405-.14242-.745-.58219-.745a.613.613,0,0,0-.61831.66752.63132.63132,0,0,0,.68287.71393,1.012,1.012,0,0,0,.41676-.08533Zm-.841-.489a.36531.36531,0,0,1,.35444-.36735.333.333,0,0,1,.32862.36735Z"/><path class="cls-6" d="M267.48083,15.458a.82772.82772,0,1,1-.82791.82753.82766.82766,0,0,1,.82791-.82753"/><path class="cls-6" d="M267.49655,18.36917a.68306.68306,0,1,1-.68306.683.683.683,0,0,1,.68306-.683"/><path class="cls-6" d="M267.48326,20.82932a.61616.61616,0,1,1-.61644.61625.61633.61633,0,0,1,.61644-.61625"/><path class="cls-6" d="M264.46915,15.458a.82772.82772,0,1,1-.8279.82753.82766.82766,0,0,1,.8279-.82753"/><path class="cls-6" d="M264.47544,18.36917a.68306.68306,0,1,1-.68306.683.683.683,0,0,1,.68306-.683"/><path class="cls-6" d="M264.47149,20.82932a.61616.61616,0,1,1-.61625.61625.61633.61633,0,0,1,.61625-.61625"/><path class="cls-6" d="M270.50919,18.36917a.68306.68306,0,1,1-.68306.683.683.683,0,0,1,.68306-.683"/><path class="cls-6" d="M270.51942,20.82932a.61616.61616,0,1,1-.61643.61625.61656.61656,0,0,1,.61643-.61625"/><path class="cls-6" d="M273.53482,18.36917a.68306.68306,0,1,1-.68324.683.6829.6829,0,0,1,.68324-.683"/><path class="cls-6" d="M273.52606,20.82932a.61616.61616,0,1,1-.61625.61625.61645.61645,0,0,1,.61625-.61625"/><path class="cls-6" d="M276.55215,18.36917a.68306.68306,0,1,1-.68306.683.683.683,0,0,1,.68306-.683"/><path class="cls-6" d="M276.53869,20.82932a.61616.61616,0,1,1-.61643.61625.61645.61645,0,0,1,.61643-.61625"/><path class="cls-6" d="M279.56975,18.36917a.68306.68306,0,1,1-.68306.683.68293.68293,0,0,1,.68306-.683"/><path class="cls-6" d="M279.57035,20.83838a.61625.61625,0,1,1-.61644.61625.61621.61621,0,0,1,.61644-.61625"/><path class="cls-7" d="M276.54453,12.00523a.82772.82772,0,1,1,.82771-.8279.82782.82782,0,0,1-.82771.8279"/><path class="cls-7" d="M276.52876,8.94421a.68306.68306,0,1,1,.68305-.68306.683.683,0,0,1-.68305.68306"/><path class="cls-7" d="M276.53929,6.4321a.5602.5602,0,1,1,.56029-.56029.56043.56043,0,0,1-.56029.56029"/><path class="cls-7" d="M279.5563,12.00523a.82772.82772,0,1,1,.82771-.8279.82782.82782,0,0,1-.82771.8279"/><path class="cls-7" d="M279.54988,8.94421a.68306.68306,0,1,1,.68305-.68306.68305.68305,0,0,1-.68305.68306"/><path class="cls-7" d="M279.53086,6.45665a.56188.56188,0,1,1,.562-.56179.56182.56182,0,0,1-.562.56179"/><path class="cls-7" d="M273.3588,12.00523a.82772.82772,0,1,1,.82771-.8279.82806.82806,0,0,1-.82771.8279"/><path class="cls-7" d="M273.51611,8.94421a.68306.68306,0,1,1,.683-.68306.68305.68305,0,0,1-.683.68306"/><path class="cls-7" d="M273.50325,6.4321a.5602.5602,0,1,1,.56029-.56029.56014.56014,0,0,1-.56029.56029"/><path class="cls-7" d="M270.5059,12.00523a.82772.82772,0,1,1,.8277-.8279.82783.82783,0,0,1-.8277.8279"/><path class="cls-7" d="M270.49018,8.94421a.68306.68306,0,1,1,.68323-.68306.68328.68328,0,0,1-.68323.68306"/><path class="cls-7" d="M270.49619,6.4321a.5602.5602,0,1,1,.56029-.56029.56015.56015,0,0,1-.56029.56029"/><path class="cls-7" d="M267.49355,12.00523a.82772.82772,0,1,1,.82771-.8279.82806.82806,0,0,1-.82771.8279"/><path class="cls-7" d="M267.47325,8.94421a.68306.68306,0,1,1,.68324-.68306.68329.68329,0,0,1-.68324.68306"/><path class="cls-7" d="M267.48369,6.4321a.5602.5602,0,1,1,.56029-.56029.56015.56015,0,0,1-.56029.56029"/><path class="cls-7" d="M264.4723,10.32757a.82772.82772,0,1,1-.82791.82771.82782.82782,0,0,1,.82791-.82771"/><path class="cls-7" d="M264.45562,8.94421a.68306.68306,0,1,1,.68306-.68306.683.683,0,0,1-.68306.68306"/><path class="cls-7" d="M264.45205,6.42267a.5602.5602,0,1,1,.56029-.56029.56017.56017,0,0,1-.56029.56029"/><path class="cls-5" d="M269.33993,16.964h.183V16.1193h.26274v-.14784H269.523v-.107c0-.13437.01946-.23542.177-.23542a.287.287,0,0,1,.08758.0116l.00786-.14785a.73567.73567,0,0,0-.12276-.01178c-.27042,0-.33273.15776-.33273.399v.09152h-.23355v.14784h.23355Z"/><path class="cls-5" d="M269.33993,16.964h.183V16.1193h.26274v-.14784H269.523v-.107c0-.13437.01946-.23542.177-.23542a.287.287,0,0,1,.08758.0116l.00786-.14785a.73567.73567,0,0,0-.12276-.01178c-.27042,0-.33273.15776-.33273.399v.09152h-.23355v.14784h.23355Z"/><path class="cls-5" d="M270.00285,16.46782a.50529.50529,0,1,0,1.01017,0,.5053.5053,0,1,0-1.01017,0m.19462,0a.3155.3155,0,1,1,.62093,0,.3155.3155,0,1,1-.62093,0"/><path class="cls-5" d="M270.00285,16.46782a.50529.50529,0,1,0,1.01017,0,.5053.5053,0,1,0-1.01017,0Zm.19462,0a.3155.3155,0,1,1,.62093,0,.3155.3155,0,1,1-.62093,0Z"/><path class="cls-5" d="M271.32959,16.964h.183v-.45157c0-.24908.107-.40478.27041-.40478a.27391.27391,0,0,1,.10124.01759v-.16355a.51221.51221,0,0,0-.1207-.01367.30172.30172,0,0,0-.25882.17722h-.00392v-.15382h-.17123Z"/><path class="cls-5" d="M271.32959,16.964h.183v-.45157c0-.24908.107-.40478.27041-.40478a.27391.27391,0,0,1,.10124.01759v-.16355a.51221.51221,0,0,0-.1207-.01367.30172.30172,0,0,0-.25882.17722h-.00392v-.15382h-.17123Z"/><path class="cls-5" d="M273.56817,15.63081a.90346.90346,0,0,0-.28988-.04866c-.24534,0-.436.12838-.436.37,0,.42238.58387.33854.58387.64226a.24321.24321,0,0,1-.26648.22176.82575.82575,0,0,1-.28221-.06606l-.01965.181a.90984.90984,0,0,0,.27846.05651c.27229,0,.4963-.11509.4963-.405,0-.44764-.58406-.38719-.58406-.64825,0-.142.12856-.181.23747-.181a.6.6,0,0,1,.25488.05651Z"/><path class="cls-5" d="M273.56817,15.63081a.90346.90346,0,0,0-.28988-.04866c-.24534,0-.436.12838-.436.37,0,.42238.58387.33854.58387.64226a.24321.24321,0,0,1-.26648.22176.82575.82575,0,0,1-.28221-.06606l-.01965.181a.90984.90984,0,0,0,.27846.05651c.27229,0,.4963-.11509.4963-.405,0-.44764-.58406-.38719-.58406-.64825,0-.142.12856-.181.23747-.181a.6.6,0,0,1,.25488.05651Z"/><path class="cls-5" d="M273.88543,17.38246a.60356.60356,0,0,0,.12463.01366c.24141,0,.31345-.21989.38158-.41058l.36567-1.0141h-.18471l-.27248.82153h-.00393l-.26667-.82153h-.20061l.33685.92652a.53684.53684,0,0,1,.03481.105c0,.01966-.05427.24534-.21783.24534a.27829.27829,0,0,1-.08571-.01572Z"/><path class="cls-5" d="M273.88543,17.38246a.60356.60356,0,0,0,.12463.01366c.24141,0,.31345-.21989.38158-.41058l.36567-1.0141h-.18471l-.27248.82153h-.00393l-.26667-.82153h-.20061l.33685.92652a.53684.53684,0,0,1,.03481.105c0,.01966-.05427.24534-.21783.24534a.27829.27829,0,0,1-.08571-.01572Z"/><path class="cls-5" d="M274.95182,16.93289a.57129.57129,0,0,0,.27247.05446.31221.31221,0,0,0,.34658-.30934c0-.31738-.43-.259-.43-.46129,0-.08178.0816-.12071.17516-.12071a.53592.53592,0,0,1,.19257.05053l.01553-.15944a.76039.76039,0,0,0-.22775-.03893c-.19668,0-.35032.09919-.35032.30542,0,.27845.43.26274.43.44388,0,.10705-.10312.142-.18677.142a.48937.48937,0,0,1-.22793-.07017Z"/><path class="cls-5" d="M274.95182,16.93289a.57129.57129,0,0,0,.27247.05446.31221.31221,0,0,0,.34658-.30934c0-.31738-.43-.259-.43-.46129,0-.08178.0816-.12071.17516-.12071a.53592.53592,0,0,1,.19257.05053l.01553-.15944a.76039.76039,0,0,0-.22775-.03893c-.19668,0-.35032.09919-.35032.30542,0,.27845.43.26274.43.44388,0,.10705-.10312.142-.18677.142a.48937.48937,0,0,1-.22793-.07017Z"/><path class="cls-5" d="M276.4498,15.97146h-.26256v-.288l-.1832.05838v.22962h-.22364v.14784h.22364v.58013c0,.19836.11677.288.30559.288a.57087.57087,0,0,0,.1557-.02732v-.1557a.22568.22568,0,0,1-.12463.035.15716.15716,0,0,1-.15346-.177V16.1193h.26256Z"/><path class="cls-5" d="M276.4498,15.97146h-.26256v-.288l-.1832.05838v.22962h-.22364v.14784h.22364v.58013c0,.19836.11677.288.30559.288a.57087.57087,0,0,0,.1557-.02732v-.1557a.22568.22568,0,0,1-.12463.035.15716.15716,0,0,1-.15346-.177V16.1193h.26256Z"/><path class="cls-5" d="M277.53118,16.74027a.58749.58749,0,0,1-.3056.09919.32476.32476,0,0,1-.32693-.33086h.70851c0-.31926-.10705-.56048-.43791-.56048a.46113.46113,0,0,0-.465.50228.47469.47469,0,0,0,.51369.5369.76009.76009,0,0,0,.31327-.064Zm-.63253-.36791a.27516.27516,0,0,1,.26667-.2764.25061.25061,0,0,1,.24721.2764Z"/><path class="cls-5" d="M277.53118,16.74027a.58749.58749,0,0,1-.3056.09919.32476.32476,0,0,1-.32693-.33086h.70851c0-.31926-.10705-.56048-.43791-.56048a.46113.46113,0,0,0-.465.50228.47469.47469,0,0,0,.51369.5369.76009.76009,0,0,0,.31327-.064Zm-.63253-.36791a.27516.27516,0,0,1,.26667-.2764.25061.25061,0,0,1,.24721.2764Z"/><path class="cls-5" d="M277.94107,16.964h.183v-.50022c0-.18489.0741-.36773.26086-.36773.14785,0,.177.15364.177.27622V16.964h.18283v-.50022c0-.18489.07392-.36773.26088-.36773.148,0,.17721.15364.17721.27622V16.964h.18284v-.63646c0-.21577-.09132-.37952-.34453-.37952a.35377.35377,0,0,0-.30728.19276.29356.29356,0,0,0-.2822-.19276.33573.33573,0,0,0-.31552.16749h-.00374v-.14409h-.17141Z"/><path class="cls-5" d="M277.94107,16.964h.183v-.50022c0-.18489.0741-.36773.26086-.36773.14785,0,.177.15364.177.27622V16.964h.18283v-.50022c0-.18489.07392-.36773.26088-.36773.148,0,.17721.15364.17721.27622V16.964h.18284v-.63646c0-.21577-.09132-.37952-.34453-.37952a.35377.35377,0,0,0-.30728.19276.29356.29356,0,0,0-.2822-.19276.33573.33573,0,0,0-.31552.16749h-.00374v-.14409h-.17141Z"/><path class="cls-5" d="M279.68027,16.93289a.57133.57133,0,0,0,.27248.05446.3122.3122,0,0,0,.34657-.30934c0-.31738-.43-.259-.43-.46129,0-.08178.08159-.12071.17516-.12071a.536.536,0,0,1,.19257.05053l.01553-.15944a.76044.76044,0,0,0-.22775-.03893c-.19668,0-.35032.09919-.35032.30542,0,.27845.43.26274.43.44388,0,.10705-.10312.142-.18677.142a.49059.49059,0,0,1-.22793-.07017Z"/><path class="cls-5" d="M279.68027,16.93289a.57133.57133,0,0,0,.27248.05446.3122.3122,0,0,0,.34657-.30934c0-.31738-.43-.259-.43-.46129,0-.08178.08159-.12071.17516-.12071a.536.536,0,0,1,.19257.05053l.01553-.15944a.76044.76044,0,0,0-.22775-.03893c-.19668,0-.35032.09919-.35032.30542,0,.27845.43.26274.43.44388,0,.10705-.10312.142-.18677.142a.49059.49059,0,0,1-.22793-.07017Z"/><path class="cls-5" d="M281.26884,16.964h.36211c.27622,0,.51781-.07.51781-.36193a.31782.31782,0,0,0-.31552-.32693v-.00393a.3147.3147,0,0,0,.28053-.323c0-.25115-.19482-.34266-.477-.34266h-.36791Zm.19481-.61886H281.59c.16748,0,.35238.02919.35238.23934,0,.183-.15758.22008-.33273.22008h-.146Zm0-.58h.204c.11321,0,.25132.0408.25132.20248,0,.20043-.15962.21783-.34826.21783h-.107Z"/><path class="cls-5" d="M281.26884,16.964h.36211c.27622,0,.51781-.07.51781-.36193a.31782.31782,0,0,0-.31552-.32693v-.00393a.3147.3147,0,0,0,.28053-.323c0-.25115-.19482-.34266-.477-.34266h-.36791Zm.19481-.61886H281.59c.16748,0,.35238.02919.35238.23934,0,.183-.15758.22008-.33273.22008h-.146Zm0-.58h.204c.11321,0,.25132.0408.25132.20248,0,.20043-.15962.21783-.34826.21783h-.107Z"/><path class="cls-5" d="M282.5663,16.964h.183v-.99258h-.183Zm.19463-1.42076h-.20642v.20623h.20642Z"/><path class="cls-5" d="M282.56638,16.96415h.183v-.99258h-.183Zm.19462-1.42094h-.20642v.20623h.20642Z"/><path class="cls-5" d="M283.08905,16.46782a.50538.50538,0,1,0,1.01036,0,.50539.50539,0,1,0-1.01036,0m.19482,0a.31542.31542,0,1,1,.62073,0,.31542.31542,0,1,1-.62073,0"/><path class="cls-5" d="M283.08905,16.46782a.50538.50538,0,1,0,1.01036,0,.50539.50539,0,1,0-1.01036,0Zm.19482,0a.31542.31542,0,1,1,.62073,0,.31542.31542,0,1,1-.62073,0Z"/><path class="cls-5" d="M284.3944,16.964h.183v-.50022c0-.18489.07411-.36773.26087-.36773.14765,0,.17685.15364.17685.27622V16.964h.183v-.50022c0-.18489.07391-.36773.26087-.36773.148,0,.17722.15364.17722.27622V16.964h.18283v-.63646c0-.21577-.0917-.37952-.34452-.37952a.35428.35428,0,0,0-.30765.19276.29292.29292,0,0,0-.28221-.19276.3355.3355,0,0,0-.31514.16749h-.00374v-.14409h-.17142Z"/><path class="cls-5" d="M284.3944,16.964h.183v-.50022c0-.18489.07411-.36773.26087-.36773.14765,0,.17685.15364.17685.27622V16.964h.183v-.50022c0-.18489.07391-.36773.26087-.36773.148,0,.17722.15364.17722.27622V16.964h.18283v-.63646c0-.21577-.0917-.37952-.34452-.37952a.35428.35428,0,0,0-.30765.19276.29292.29292,0,0,0-.28221-.19276.3355.3355,0,0,0-.31514.16749h-.00374v-.14409h-.17142Z"/><path class="cls-5" d="M286.97852,16.74027a.58936.58936,0,0,1-.3056.09919.32483.32483,0,0,1-.3273-.33086h.7085c0-.31926-.107-.56048-.43771-.56048a.46118.46118,0,0,0-.46523.50228.47469.47469,0,0,0,.51369.5369.76383.76383,0,0,0,.31365-.064Zm-.6329-.36791a.27515.27515,0,0,1,.26667-.2764.25075.25075,0,0,1,.24739.2764Z"/><path class="cls-5" d="M286.97852,16.74027a.58936.58936,0,0,1-.3056.09919.32483.32483,0,0,1-.3273-.33086h.7085c0-.31926-.107-.56048-.43771-.56048a.46118.46118,0,0,0-.46523.50228.47469.47469,0,0,0,.51369.5369.76383.76383,0,0,0,.31365-.064Zm-.6329-.36791a.27515.27515,0,0,1,.26667-.2764.25075.25075,0,0,1,.24739.2764Z"/><path class="cls-5" d="M288.09277,16.96409h.17516V15.50442h-.18321v.60333H288.081a.35368.35368,0,0,0-.3288-.15963.44355.44355,0,0,0-.42817.50209c0,.2706.12632.53727.4263.53727a.39967.39967,0,0,0,.33872-.16355h.00374Zm-.57432-.50022c-.00375-.181.07392-.36791.27247-.36791s.2938.18883.2938.37371c0,.16543-.08552.36979-.29174.36979-.1965,0-.27828-.21989-.27453-.37559"/><path class="cls-5" d="M288.09277,16.96409h.17516V15.50442h-.18321v.60333H288.081a.35368.35368,0,0,0-.3288-.15963.44355.44355,0,0,0-.42817.50209c0,.2706.12632.53727.4263.53727a.39967.39967,0,0,0,.33872-.16355h.00374Zm-.57432-.50022c-.00375-.181.07392-.36791.27247-.36791s.2938.18883.2938.37371c0,.16543-.08552.36979-.29174.36979C287.59648,16.83946,287.5147,16.61957,287.51845,16.46387Z"/><path class="cls-5" d="M288.69321,16.964h.183v-.99258h-.183Zm.19481-1.42076h-.20641v.20623h.20641Z"/><path class="cls-5" d="M288.69325,16.96415h.18321v-.99258h-.18321Zm.19481-1.42094h-.20642v.20623h.20642Z"/><path class="cls-5" d="M289.948,15.987a.6878.6878,0,0,0-.22195-.03892.49011.49011,0,0,0-.506.51987.50215.50215,0,0,0,.506.51949.55461.55461,0,0,0,.22962-.041l-.01347-.16337a.38416.38416,0,0,1-.19687.05633.33565.33565,0,0,1-.33068-.37147.33993.33993,0,0,1,.31926-.37185.52637.52637,0,0,1,.19856.04286Z"/><path class="cls-5" d="M289.948,15.987a.6878.6878,0,0,0-.22195-.03892.49011.49011,0,0,0-.506.51987.50215.50215,0,0,0,.506.51949.55461.55461,0,0,0,.22962-.041l-.01347-.16337a.38416.38416,0,0,1-.19687.05633.33565.33565,0,0,1-.33068-.37147.33993.33993,0,0,1,.31926-.37185.52637.52637,0,0,1,.19856.04286Z"/><path class="cls-5" d="M290.28014,16.964h.18283v-.99258h-.18283Zm.19463-1.42076h-.20623v.20623h.20623Z"/><path class="cls-5" d="M290.28026,16.96415h.18283v-.99258h-.18283Zm.19443-1.42094h-.20623v.20623h.20623Z"/><path class="cls-5" d="M290.8887,16.964h.18283V16.5048c0-.24141.09357-.40871.30166-.40871.15963.00973.21035.12258.21035.35407V16.964h.18265v-.58949c0-.26686-.11453-.42649-.37166-.42649a.35691.35691,0,0,0-.32488.181h-.00392v-.15757h-.177Z"/><path class="cls-5" d="M290.8887,16.964h.18283V16.5048c0-.24141.09357-.40871.30166-.40871.15963.00973.21035.12258.21035.35407V16.964h.18265v-.58949c0-.26686-.11453-.42649-.37166-.42649a.35691.35691,0,0,0-.32488.181h-.00392v-.15757h-.177Z"/><path class="cls-5" d="M292.92944,16.74027a.58746.58746,0,0,1-.3056.09919.32475.32475,0,0,1-.32692-.33086h.7085c0-.31926-.107-.56048-.43791-.56048a.46142.46142,0,0,0-.46541.50228.475.475,0,0,0,.51407.5369.76009.76009,0,0,0,.31327-.064Zm-.63252-.36791a.27489.27489,0,0,1,.26667-.2764.25061.25061,0,0,1,.2472.2764Z"/><path class="cls-5" d="M292.92944,16.74027a.58746.58746,0,0,1-.3056.09919.32475.32475,0,0,1-.32692-.33086h.7085c0-.31926-.107-.56048-.43791-.56048a.46142.46142,0,0,0-.46541.50228.475.475,0,0,0,.51407.5369.76009.76009,0,0,0,.31327-.064Zm-.63252-.36791a.27489.27489,0,0,1,.26667-.2764.25061.25061,0,0,1,.2472.2764Z"/></g></svg>